<?xml version="1.0" encoding="utf-8"?>
<!-- Generator: Adobe Illustrator 23.0.1, SVG Export Plug-In . SVG Version: 6.00 Build 0)  -->
<svg version="1.1" id="Layer_1" xmlns="http://www.w3.org/2000/svg" xmlns:xlink="http://www.w3.org/1999/xlink" x="0px" y="0px"
	 viewBox="0 0 400 400" style="enable-background:new 0 0 400 400;" xml:space="preserve">
<style type="text/css">
	.st0{fill:#FFFFFF;}
</style>
<g>
	<path class="st0" d="M231.6,234.7c0,0.3,0,1,0,1.6c0,0.6,0.1,1.3,0.2,1.9c-0.2,0.1-0.2,0.2-0.3,0.2c-6.8,0.7-6.9,0.7-7.3-6
		c-0.3-6.5-0.3-13-0.4-19.5c0-0.5-0.1-1-0.1-1.8c-16.9,6.4-33.5,5.8-49.6-1.8c-0.5,9.9-0.9,19.5-1.3,29.2c-2.8,0.2-5.1,0.3-7.5,0.4
		c0.4-4,0.8-8,1.2-12.1c-5.6,0-10.9-0.3-16.2,0.1c-11.9,0.7-23.1,3.6-33.7,9.2c-2.9,1.5-5.1,0.3-5.5-3c-1.4-10.8,0-21.4,2.8-31.9
		c3.2-11.8,6.7-23.5,9.5-35.4c3.6-15.5,3.5-31.2,1.5-46.9c-1.5-12-2.9-24-1.2-36.1c1.9-13.4,7.7-24.2,20.5-30.2
		c3.7-1.7,7.2-2.5,10.7,0.4c0.2,0.2,0.6,0.2,1.1,0.3c0.1-0.6,0.3-1.1,0.3-1.7c-0.2-4.1,1.6-7.1,4.8-9.6c9.1-6.9,19.7-9.2,30.8-8.9
		c40.1,1.2,75.8,31.3,84.2,70.8c2.4,11.3,2.5,22.6,2,34c-0.6,17.1-0.8,34.1-0.9,51.2c0,6.5,0.9,13,3.3,19.1
		c2.2,5.5,5.8,9.7,11.2,12.2c1.6,0.7,3.2,1.7,2.8,3.6c-0.3,1.3-1.4,2.9-2.6,3.5c-9.7,5.5-20.3,8-31.3,8.1
		C251,235.8,241.4,235.1,231.6,234.7z M253.7,142.8c-3.7-0.3-7.4-0.4-11.1-0.8c-16.5-1.8-32.1-6.5-46-16
		c-10.9-7.4-19.6-16.7-23.8-29.6c-0.4-1.3-0.9-2.5-1.5-3.7c-0.2-0.4-0.8-0.7-1.2-1c-0.2,0.5-0.7,1-0.7,1.4c0,1.6,0.1,3.2,0.4,4.7
		c1.9,11-1,20.1-10.6,26.4c-3.6,2.4-7.5,4.2-11.6,6.4c0,7.5-0.1,15.5,0,23.5c0.1,3.4,0.3,6.8,0.9,10.2c5,30.4,35.9,50.4,65.6,42.2
		C241.6,199,257.3,175,253.7,142.8z M283.7,224c-5-3.9-8.1-8.4-10.1-13.8c-2.5-6.6-3.5-13.6-3.5-20.6c0-13.1,0.4-26.3,0.5-39.4
		c0-2.9,0-5.7,0-8.7c-3.3,0.4-6.4,0.8-9.7,1.2c0,1.2,0,2.3,0,3.4c-0.1,4.6,0,9.2-0.2,13.7c-0.5,12.3-1.4,24.6-1.6,36.9
		c-0.1,7.1,0.7,14.3,3.7,21c1.9,4.3,4.9,7.5,9.5,9c0.7,0.2,1.5,0.4,2.2,0.2C277.4,226,280.3,225,283.7,224z M117.5,227.5
		c1.8-0.7,3.3-1.5,4.9-1.9c1.8-0.5,2.2-1.5,2.4-3.2c0.4-3.4,0.8-6.8,1.5-10.1c1.9-9.7,6.3-18.5,10.4-27.5c3.3-7.3,5.3-14.6,4.4-22.9
		c-0.9-8.9-0.4-18-0.6-27c0-1,0-2,0-3.1c-2.7,0.3-5,0.6-7.5,0.9c0,2,0.1,3.8,0,5.7c-0.5,7.7-0.4,15.6-1.9,23.1
		c-2.5,12.4-6.1,24.7-9.3,37C119.2,207.8,117,217.2,117.5,227.5z M143,220.2c0.7-6.4,3.5-11.8,6.6-17.2c1.5-2.7,2.7-5.5,3.9-8.3
		c0.3-0.6,0.2-1.7-0.1-2.3c-2.4-3.8-4.9-7.5-7.4-11.3c-5.5,13.3-13.3,26-13.9,41.2C135.7,221.6,139.2,221,143,220.2z M261.9,228.7
		c-10.5-12.2-9.5-26.8-10-41.1c-2.6,3.2-5,6-7.3,8.9c-0.4,0.5-0.6,1.3-0.7,2c-0.2,4.3-0.4,8.6-0.3,13c0.1,5.3,0.7,10.5,3.5,15.1
		c0.5,0.9,1.7,1.9,2.6,2C253.6,228.8,257.5,228.7,261.9,228.7z M159.5,199.3c-2.7,7-8,12.5-9.1,20.1c5.7,0,10.9,0,16.1,0
		c0-4.6,0-9,0-13.4c0-0.6-0.5-1.4-1-1.8C163.7,202.5,161.7,201.1,159.5,199.3z M243.3,133c0.4-0.4,1.5-1,1.6-1.8
		c0-0.7-0.9-1.8-1.7-2.2c-0.9-0.5-2.1-0.4-3.2-0.6c-14.6-2.4-28.3-7.1-40.4-16c-1.2-0.9-2.5-1.8-3.7-0.2c-1.2,1.6,0,2.7,1.3,3.4
		c5.5,3.2,10.9,6.7,16.7,9.4C223,129.4,232.7,131.6,243.3,133z M239.7,227.9c-3.4-7.8-3.2-15.8-3.2-23.8c-4,1.7-6.8,3.8-5.8,8.4
		c0.1,0.5-0.1,1-0.1,1.5c0,4.3,0,8.6,0,12.9C234,227.2,236.7,227.5,239.7,227.9z M166.1,103.1c0.3-0.3,0.6-0.7,0.9-1
		c-0.8-0.3-1.6-0.9-2.4-0.8c-0.9,0.2-2.1,0.7-2.6,1.4c-5.1,8.5-10.6,16.4-20.5,19.9c-0.6,0.2-1.2,1.7-1,2.4c0.2,0.6,1.5,1.2,2.3,1.1
		c0.9,0,1.9-0.6,2.8-1c9.6-4.2,15.1-12.3,20-20.9C166,104,166,103.5,166.1,103.1z M253.9,133.7C253.9,133.7,253.9,133.7,253.9,133.7
		c0.6,0,1.3,0.3,1.7,0c0.7-0.5,1.7-1.2,1.8-1.9c0.1-0.6-0.9-1.6-1.6-1.9c-1-0.4-2.3-0.4-3.4-0.1c-0.8,0.2-1.8,1.1-1.8,1.8
		c0,0.6,1,1.4,1.7,1.9C252.6,133.9,253.3,133.7,253.9,133.7z M137.4,123c-1.1,1.3-2.2,2-2.2,2.9c-0.1,0.6,1.4,2,1.8,1.9
		c1-0.3,1.9-1.2,2.4-2.1C139.5,125.4,138.3,124.3,137.4,123z"/>
	<path class="st0" d="M200,259.2c6.3-5.4,13.1-9.5,21-11.4c19.1-4.6,38.7,6.2,43.7,24.2c3.3,11.9,0,22.5-6.9,32.3
		c-1.8,2.6-3.9,5-6.1,7.2c-16,16.1-32.1,32.2-48.2,48.3c-3,3-4.1,3-7,0.1c-16.4-16.4-32.8-32.7-49.1-49.2
		c-6.5-6.6-11.3-14.2-12.8-23.5c-3-18,7.7-34.4,25.6-39.1c13.8-3.6,25.9,0.4,37,8.8C198,257.6,198.9,258.3,200,259.2z M141.6,280.2
		c0.4,2.8,0.6,5.2,1.2,7.4c3,12.1,12.2,19.6,20.5,27.6c1.3,1.3,3.3,0.9,4.5-0.5c1.3-1.6,1.3-3.4-0.2-4.9c-2.9-3-6-5.8-8.8-8.9
		c-2.2-2.4-4.3-4.9-6-7.6c-3.7-5.9-5.2-12.2-2.6-19c0.8-2.2,0-4.1-1.8-4.7c-2.1-0.7-4,0.1-4.7,2.4
		C142.7,274.8,142.2,277.7,141.6,280.2z M160,261.9c0.1-2-1.4-3.5-3.4-3.5c-2.5,0-5.7,2.8-5.8,4.9c0,2,1.4,3.5,3.4,3.6
		C156.3,267,159.9,263.9,160,261.9z"/>
	<path class="st0" d="M199.4,163.1c-0.2,0-0.8,0.1-1.2-0.1c-0.6-0.4-1.1-0.9-1.7-1.4c0.5-0.5,1-1.4,1.6-1.5c4.3-0.8,4.8-1.5,3.5-5.9
		c-1.5-5.3-3.1-10.7-4.5-16c-0.4-1.4-0.3-3-0.2-4.5c0.1-0.6,0.9-1.1,1.4-1.6c0.5,0.5,1.5,1,1.5,1.6c0.2,7.3,2.7,14,5.2,20.7
		c0.2,0.5,0.3,1,0.4,1.4C206.8,160.9,205,163.1,199.4,163.1z"/>
	<path class="st0" d="M200.5,183.6c-4.2-0.7-8.3-1.4-12.5-2.2c-0.6-0.1-1-1-1.5-1.6c0.7-0.5,1.4-1.4,2-1.3c2.4,0.3,4.7,0.9,7.1,1.3
		c4.8,0.8,9.4,0.9,13.5-2.5c0.5-0.4,1.6,0,2.4,0c-0.2,0.9-0.1,2-0.6,2.5C208,182.4,204.5,183.4,200.5,183.6z"/>
	<path class="st0" d="M181.1,136.8c-4.8-0.6-9.5-1-14.3-1.7c-0.7-0.1-1.2-1.1-1.8-1.7c0.8-0.4,1.5-1.3,2.3-1.3
		c6.4,0.3,12.7,0.8,19.1,1.4c0.6,0.1,1.1,0.9,1.7,1.3c-0.6,0.6-1,1.5-1.7,1.6c-1.7,0.2-3.5,0.1-5.2,0.1
		C181.1,136.6,181.1,136.7,181.1,136.8z"/>
</g>
</svg>
