<?xml version="1.0" encoding="utf-8"?>
<!-- Generator: Adobe Illustrator 23.0.1, SVG Export Plug-In . SVG Version: 6.00 Build 0)  -->
<svg version="1.1" id="Layer_1" xmlns="http://www.w3.org/2000/svg" xmlns:xlink="http://www.w3.org/1999/xlink" x="0px" y="0px"
	 viewBox="0 0 400 400" style="enable-background:new 0 0 400 400;" xml:space="preserve">
<style type="text/css">
	.st0{fill:#FFFFFF;}
</style>
<g>
	<path class="st0" d="M200.5,197.5c1-1.3,1.5-2,2.2-2.7c23.1-23.1,46.2-46.2,69.3-69.3c3.1-3.1,4.5-3.1,7.6,0.1
		c34.5,34.5,68.9,68.9,103.4,103.4c3.2,3.2,3.2,4.5,0.1,7.6c-20.7,20.7-41.4,41.3-62,62.1c-1.6,1.6-3.3,2.2-5.5,2.2c-27,0-54,0-81,0
		c-14.2,0-28.3,0-42.5,0.1c-35.4,0.1-70.8,0.3-106.2,0.4c-2.2,0-3.7-0.6-5.3-2.2c-20.9-21-41.8-41.9-62.7-62.8c-3-3-3-4.4,0-7.5
		c34.6-34.6,69.2-69.2,103.7-103.7c2.9-2.9,4.3-2.9,7.3,0.1c23.2,23.2,46.3,46.3,69.4,69.5C199,195.6,199.5,196.3,200.5,197.5z
		 M209.8,268.2c-5.7,5.7-11.3,11.3-17,17c1.1,2,2.4,4.2,3.5,6.6c0.8,1.8,1.8,2.4,3.8,2.4c23.7-0.1,47.5-0.1,71.2-0.1
		c5,0,10.1,0,15.2,0c-44.7-44.6-89.2-89-133.8-133.4c-13.5,11.7-37.1,14.5-54.5-0.7c-15.7,15.7-31.4,31.4-47,47
		c12.5,17.4,12.6,35.2,0.1,53c0.1,0.2,0.2,0.4,0.3,0.5c11,11,22,22.1,33.1,33c0.6,0.6,1.7,0.9,2.6,0.9c17.6,0,35.2,0,52.7,0
		c1.5,0,2.2-0.4,2.3-2c0.4-4.6,2.2-8.7,5.3-12.1c2.6-2.9,6.9-3.4,10-1.3c3.5,2.3,4.5,6,2.7,9.8c-0.8,1.7-1.6,3.4-2.5,5.4
		c4.8,0,9.1,0,13.4,0c0.6,0,1.3-0.4,1.7-0.8c1.6-1.4,3.2-2.9,4.6-4.1c-2-4.7-4-8.7-5.5-12.9c-2-5.5-2-11.2,0.9-16.5
		c6.9-12.5,20.6-18.3,34.6-9.6c1.7,1.1,3.4,2.3,5.4,3.6c0.8-1,1.6-1.9,2.4-2.7c0.8-0.8,1.6-1.7,2.5-2.4c2.1-1.7,3.9-1.6,5.5,0.2
		c1.4,1.6,1.4,3.4-0.5,5.3c-1.6,1.7-3.4,3.1-4.7,4.4c2.1,3.7,4.2,6.7,5.4,10c2.7,7.1,2,14.1-1.9,20.6c-1.6,2.7-4.1,3.8-7.2,3.5
		c-2.9-0.3-4.9-2-6.1-4.6c-1.2-2.6-0.4-5,0.9-7.4C211.7,276.7,211.9,272.4,209.8,268.2z M206,202.3c0.1,0.1,0.3,0.5,0.6,0.7
		c29.9,29.9,59.8,59.9,89.8,89.7c0.7,0.7,1.9,1.1,2.8,1.1c4.8,0.1,9.7,0.2,14.5,0c1.2,0,2.8-0.7,3.6-1.5
		c10.3-10.2,20.5-20.5,30.8-30.7c0.5-0.5,1-1.1,1.6-1.7c-6.2-7.9-9.5-16.8-9.3-26.9c0.1-10,3.6-18.8,9.7-26.3
		c-15.9-16.2-31.6-32.2-47.3-48.2c-8.2,6.6-17.1,9.8-27,9.8c-10,0-18.9-3.4-26.3-9.5C235,173.3,220.5,187.7,206,202.3z M267.5,149.3
		c-0.1,4.9,3.5,8.6,8.3,8.7c4.8,0.1,8.6-3.6,8.7-8.3c0.1-4.8-3.6-8.6-8.3-8.7C271.4,140.9,267.6,144.5,267.5,149.3z M123.9,143.4
		c-4.9,0-8.5,3.7-8.4,8.5c0,4.7,3.9,8.5,8.6,8.5c4.7,0,8.4-3.9,8.4-8.7C132.5,147,128.8,143.4,123.9,143.4z M359,241.5
		c4.9,0.1,8.6-3.5,8.7-8.3c0.1-4.8-3.6-8.6-8.4-8.7c-4.7-0.1-8.7,3.6-8.7,8.4C350.5,237.6,354.2,241.4,359,241.5z M39.8,225
		c-4.8,0-8.5,3.7-8.5,8.5c0,4.7,3.8,8.5,8.6,8.5c4.8,0,8.5-3.8,8.5-8.6C48.4,228.7,44.6,225,39.8,225z M188.7,277.1
		c5-5,10.1-10.1,15.1-15.1c-5.3-3.4-10.1-3.3-14.1,0.5C185.6,266.4,185.3,271.3,188.7,277.1z"/>
	<path class="st0" d="M169.4,57.9c11.7,0.1,20.9,4.1,29,10.9c1.8,1.5,2.7,1.2,4.3-0.1c8.2-6.7,17.4-10.8,28.3-10.8
		c27.2,0.1,43.9,27.7,30.9,51.6c-2.5,4.7-5.9,9.2-9.6,13c-16,16.4-32.3,32.5-48.5,48.7c-2.7,2.7-3.9,2.8-6.5,0.1
		c-16.9-16.9-33.9-33.7-50.6-50.8c-7.1-7.3-11.6-16.1-12.2-26.4c-0.9-17.5,11.8-32.7,29.3-35.5C166,58.1,168.2,58,169.4,57.9z
		 M147.5,80.4c-2,0.1-2.9,1.3-3.5,3c-3.4,9.9-1.1,18.9,4.9,26.8c4.1,5.4,9.1,10.1,13.8,15.1c2,2.1,4.1,2.2,5.6,0.6
		c1.5-1.6,1.2-3.6-0.8-5.7c-2.9-2.9-5.9-5.7-8.6-8.7c-7-7.6-11.9-15.9-8-26.8C151.7,82.4,149.9,80.4,147.5,80.4z M160.5,72.7
		c-0.1-1.6-1.2-2.8-3.1-3.1c-1.8-0.3-5.4,2.1-6,3.9c-0.5,1.8,0,3.3,1.7,4.3c0.1,0,0.1,0.1,0.2,0.1C156,78.9,160.6,75.7,160.5,72.7z"
		/>
	<path class="st0" d="M101.6,203.4c4.6,1,9.6,1.9,14.5,3.1c1,0.3,2,1.7,2.4,2.8c0.9,3.1,1.5,6.3,2,9.5c0.2,1.6,1,2.3,2.5,2.5
		c2.9,0.5,5.7,1.2,8.6,1.6c2.4,0.4,3.8,1.6,4.3,4.1c0.7,4.3,1.7,8.5,2.5,12.7c0.5,2.3-0.7,4.2-2.7,4.6c-2,0.4-3.6-0.8-4.1-3
		c-0.7-3.2-1.4-6.3-1.9-9.5c-0.3-1.5-0.8-2.3-2.5-2.5c-3-0.4-6-1.3-9.1-1.8c-2.2-0.4-3.3-1.5-3.7-3.7c-0.5-3-1.3-6-1.8-9.1
		c-0.3-1.5-0.9-2.2-2.5-2.5c-3.3-0.5-6.5-1.2-9.8-2c-2.1-0.5-3.1-2-2.7-4.1C97.8,204.2,99.2,203.4,101.6,203.4z"/>
	<path class="st0" d="M310.8,202c-0.9,4.6-1.8,9.6-3.1,14.5c-0.3,1-1.9,2.1-3,2.5c-3.2,0.9-6.5,1.3-9.7,2.1c-0.8,0.2-1.7,1.2-1.9,2
		c-0.8,3.1-1.4,6.3-2,9.5c-0.4,2-1.5,3.2-3.6,3.5c-4.4,0.8-8.8,1.8-13.2,2.7c-2.2,0.4-3.9-0.6-4.4-2.6c-0.5-2,0.6-3.7,2.8-4.2
		c3.1-0.7,6.2-1.4,9.3-1.9c1.8-0.3,2.7-1,3-2.9c0.4-2.8,1.2-5.5,1.6-8.3c0.4-2.6,1.8-3.9,4.4-4.3c3-0.5,5.9-1.2,8.8-1.7
		c1.4-0.2,1.9-0.8,2.2-2.2c0.6-3.4,1.3-6.9,2.1-10.3c0.5-2,1.9-2.9,3.9-2.6C309.9,198.2,310.8,199.5,310.8,202z"/>
</g>
</svg>
