<?xml version="1.0" encoding="utf-8"?>
<!-- Generator: Adobe Illustrator 23.0.1, SVG Export Plug-In . SVG Version: 6.00 Build 0)  -->
<svg version="1.1" id="Layer_1" xmlns="http://www.w3.org/2000/svg" xmlns:xlink="http://www.w3.org/1999/xlink" x="0px" y="0px"
	 viewBox="0 0 400 400" style="enable-background:new 0 0 400 400;" xml:space="preserve">
<style type="text/css">
	.st0{fill:#FFFFFF;}
</style>
<g>
	<path class="st0" d="M199,305.6c0,4.5,0,8.7,0,13.4c0.9,0,1.9,0,2.8,0c29.2,0,58.5,0,87.7,0c0.8,0,1.7-0.1,2.5,0.1
		c2,0.3,3.1,1.6,3,3.6c-0.1,2-1.2,3-3.1,3.3c-0.7,0.1-1.5,0-2.2,0c-29.2,0-58.5,0-87.7,0c-1,0-2,0-3,0c0,4.6,0,8.8,0,13.4
		c1.2,0,2.3,0,3.4,0c29.1,0,58.2,0,87.2,0c3.9,0,5.5,1,5.5,3.5c0,2.5-1.5,3.6-5.4,3.6c-29.1,0-58.2,0-87.2,0c-1.1,0-2.1,0-3.4,0
		c0,4.3,0,8.4,0,12.6c37,0,73.9,0,111.1,0c0-1,0.1-1.9,0.1-2.9c0-32.7,0-65.5-0.1-98.2c0-1.3-0.6-3-1.6-3.9
		c-9.4-9.6-18.9-19-28.3-28.6c-1.5-1.5-3-2.3-5.2-2.2c-4.1,0.2-8.3,0-12.8,0c4.4-8.2,6.8-16.4,6.3-25.2c2.8,0,3.9,1.2,3.8,4
		c0,4.6,0,9.1,0,14.1c1.9,0,4.1-0.2,6.2,0.1c1.5,0.2,3.2,0.7,4.2,1.7c11,10.9,22,21.8,32.8,32.9c1.1,1.2,1.7,3.4,1.7,5.2
		c0.1,26.2,0.1,52.3,0.1,78.5c0,8.7,0,17.5,0,26.2c0,4.5-0.9,5.4-5.4,5.4c-35.7,0.1-71.5,0.1-107.2,0.2c-14.8,0-29.7,0.1-44.5,0
		c-23.7,0-47.5-0.1-71.2-0.2c-4.1,0-5.2-1-5.2-5.2c0-67.6,0-135.2,0-202.7c0-4.1,1-5.1,5.2-5.1c1.6,0,3.1,0,5,0c0-2.7,0-5.2,0-7.6
		c0-2.8,1.4-4.4,3.7-4.3c2.2,0.1,3.3,1.6,3.3,4.4c0,2.2,0,4.5,0,6.7c0,0.2,0.1,0.3,0.2,0.6c1,0,2,0,3.7,0c0-4.4,0-8.7,0-13
		c0-0.7,0-1.5,0-2.2c0.2-2.3,1.7-3.7,3.7-3.5c2.1,0.2,3.3,1.4,3.3,3.7c0,4.9,0,9.8,0,15c13.5,0,27.3,0,41.5,0c0-1,0-1.9,0-2.9
		c0-24.4,0-48.8,0-73.2c0-4.7,0.9-5.6,5.5-5.6c19.8,0,39.7,0,59.5,0c1.1,0,2.1,0,3.6,0c0-4.4,0-8.5,0-12.6c0-0.9-0.1-1.9,0.1-2.7
		c0.5-1.9,1.8-3,3.8-2.8c1.9,0.2,3,1.4,3.1,3.3c0.1,4,0,8,0,12c0,3,0,3,3.4,2.6c0-0.9,0-1.8,0-2.6c0-9.3,0-18.7,0-28
		c0-0.7,0-1.5,0-2.2c0.3-2.1,1.8-3.5,3.7-3.3c2.1,0.2,3.3,1.4,3.3,3.6c0,9.9,0,19.8,0,29.7c0,0.9,0,1.8,0,3.1c4.2,0,8.1,0,12.1,0
		c1,0,2,0,3,0c2.8,0.1,3.9,1.3,3.9,4.1c0,5.5,0,11,0,16.5c0,25.9,0,51.8,0,77.7c0,0.9,0,1.8,0,3.1c-2.4-2.1-4.6-3.8-6.5-5.8
		c-0.6-0.6-0.5-1.8-0.5-2.8c0-27.5,0-55,0-82.5c0-1,0-2,0-3.1c-30.4,0-60.5,0-90.8,0c0,24.9,0,49.7,0,74.6c3.4,0,6.8,0,10.5,0
		c0-1.2,0-2.2,0-3.2c0-18.1,0-36.2,0-54.2c0-1.1,0-2.2,0.3-3.2c0.4-1.8,1.8-2.6,3.5-2.5c1.8,0.1,3,1.1,3.2,2.9
		c0.1,0.8,0.1,1.7,0.1,2.5c0,18.2,0,36.3,0,54.5c0,1.1,0,2.1,0,3.4c4.5,0,8.7,0,13.3,0c0-1,0.1-2,0.1-3.1c0-18.2,0-36.5,0-54.7
		c0-0.8-0.1-1.7,0.1-2.5c0.3-1.9,1.6-3,3.5-2.9c1.8,0,3,1,3.4,2.8c0.2,1,0.2,2,0.2,3c0,18.9,0,37.8,0,56.7c0,3.7,0,7.5,0.2,11.2
		c0.1,2.6-2.3,2.8-3.7,3.8c-0.4,0.3-1.8-0.2-2.5-0.7c-0.5-0.4-0.9-1.3-1-2.1c-0.2-1.3,0-2.6,0-4.3c-2.4,0-4.6,0.1-6.7,0
		c-3.1-0.3-6.3-0.5-9.4-1.2c-7.9-1.7-15.7-1.7-23.5,0.3c-2.1,0.5-4.3,0.8-6.4,0.8c-17.2,0.1-34.3,0-51.5,0c-1.1,0-2.1,0-3.3,0
		c0,66.4,0,132.4,0,198.7c33.4,0,66.9,0,100.7,0c0-23.2,0-46.5,0-69.8c2.5-0.2,4.6-0.3,7.1-0.5c0,3.1,0,6.3,0,9.8c1.4,0,2.4,0,3.5,0
		c29.2,0,58.3,0,87.5,0c0.7,0,1.5-0.1,2.2,0c1.9,0.4,3.2,1.5,3.1,3.6c-0.1,2.1-1.2,3.2-3.3,3.4c-0.8,0.1-1.7,0-2.5,0
		c-29,0-58,0-87,0C201.2,305.6,200.2,305.6,199,305.6z"/>
	<path class="st0" d="M163.5,165.9c11.5,0.2,20.6,4,28.6,10.6c2,1.7,3,1.4,4.9-0.1c9.8-7.9,20.9-12.2,33.6-10
		c25.9,4.4,37.9,31.1,24.1,53.4c-2.4,3.9-5.4,7.7-8.6,11c-15.9,16.1-32,32.1-48,48.1c-3,3-4.1,3.1-7,0.1
		c-16.8-16.8-33.7-33.5-50.3-50.5c-7.5-7.7-12.2-16.9-12.3-27.9c-0.2-16.8,12.3-31.3,29.2-34.1C160,166.1,162.2,166,163.5,165.9z
		 M136.1,199.6c0.5,3.1,0.8,5.8,1.5,8.4c3.3,11.4,12.1,18.7,20.2,26.4c1.2,1.2,3,0.9,4.3-0.4c1.3-1.4,1.4-3,0.3-4.6
		c-0.4-0.7-1.1-1.2-1.7-1.8c-3.9-4.1-8.1-8-11.6-12.4c-5.1-6.5-7.6-13.8-4.5-22.1c0.7-2-0.2-3.9-2-4.5c-1.9-0.7-3.9,0.1-4.6,2.3
		C137.3,193.8,136.8,196.8,136.1,199.6z M151.1,177.5c-2.3,0-5.8,3-5.8,5.1c0,2,1.5,3.5,3.5,3.5c2.4,0,5.7-2.9,5.7-5
		C154.6,179.1,153,177.5,151.1,177.5z"/>
	<path class="st0" d="M203.3,284.9c2.6-2.5,4.7-4.5,6.8-6.4c0.5-0.4,1.4-0.5,2.1-0.5c26.1,0,52.2,0,78.2,0c3.1,0,4.7,1.4,4.6,3.7
		c-0.1,1.9-1,3.1-3,3.3c-0.6,0.1-1.2,0-1.7,0c-27.8,0-55.7,0-83.5,0C205.9,285.1,205.1,285,203.3,284.9z"/>
	<path class="st0" d="M223.9,264.6c2.4-2.3,4.3-4.3,6.3-6.1c0.6-0.5,1.7-0.7,2.5-0.7c19.3,0,38.6,0,57.9,0c3,0,4.5,1.2,4.5,3.5
		c0,2.3-1.4,3.6-4.4,3.6c-21.6,0-43.3,0-64.9,0C225.4,264.8,225,264.7,223.9,264.6z"/>
	<path class="st0" d="M239.5,160c-2.5-0.6-4.6-1.2-7-1.8c0-0.9,0-1.8,0-2.7c0-20.1,0-40.3,0-60.4c0-0.9,0-1.9,0.2-2.7
		c0.5-1.9,1.8-2.8,3.7-2.6c1.9,0.2,3,1.2,3.1,3.2c0,0.6,0,1.2,0,1.7c0,20.8,0,41.6,0,62.4C239.5,158.1,239.5,158.9,239.5,160z"/>
	<path class="st0" d="M219,157.9c-2.3,0.4-4.4,0.9-6.8,1.3c-0.1-0.8-0.2-1.4-0.2-2c0-20.9,0-41.8,0-62.7c0-0.9-0.1-2.1,0.5-2.6
		c1-0.9,2.5-2,3.6-1.9c1.1,0.2,2,1.8,2.9,2.8c0.2,0.2,0.1,0.8,0.1,1.2c0,20.7,0,41.5,0,62.2C219.1,156.7,219.1,157.2,219,157.9z"/>
	<path class="st0" d="M244.5,243.7c2-1.9,4-3.8,6-5.5c0.6-0.5,1.5-0.7,2.3-0.7c7.6,0,15.1,0,22.7,0c2.3,0,3.8,1.3,3.9,3.3
		c0.1,1.9-1.4,3.7-3.6,3.7c-10.3,0.1-20.6,0-30.9,0C244.8,244.2,244.6,243.9,244.5,243.7z"/>
	<path class="st0" d="M181.3,307.4c0,1.4,0.1,2.8,0,4.2c-0.2,2-1.3,3.2-3.4,3.3c-2.1,0.1-3.4-1.1-3.5-3.1c-0.2-2.9-0.2-5.8,0-8.7
		c0.1-2,1.5-3.1,3.5-3.1c2.1,0,3.2,1.2,3.4,3.2C181.4,304.6,181.3,306,181.3,307.4z"/>
	<path class="st0" d="M181.3,340c0,1.3,0.1,2.7,0,4c-0.2,2-1.4,3.2-3.4,3.3c-2,0-3.4-1.1-3.5-3.1c-0.2-2.9-0.2-5.8,0-8.7
		c0.1-2,1.5-3.1,3.5-3.1c2.1,0,3.2,1.2,3.4,3.2C181.4,337,181.3,338.5,181.3,340z"/>
	<path class="st0" d="M108,339.8c0,1.3,0,2.7,0,4c0,2.1-1.2,3.3-3.2,3.4c-2,0.2-3.5-0.9-3.7-2.9c-0.2-3.1-0.2-6.2,0-9.2
		c0.2-2,1.7-3,3.7-2.8c1.9,0.2,3,1.3,3.1,3.3C108.1,336.9,108,338.4,108,339.8z"/>
	<path class="st0" d="M108,242.9c0,1.3,0,2.7,0,4c0,2.1-1.3,3.3-3.2,3.4c-2,0.2-3.5-1-3.7-3c-0.2-3.1-0.2-6.2,0-9.2
		c0.2-2,1.7-3,3.8-2.8c1.9,0.2,3,1.3,3.1,3.3C108.1,240,108,241.5,108,242.9z"/>
	<path class="st0" d="M108,178.4c0,1.3,0,2.7,0,4c-0.1,1.9-1.2,3.1-3.1,3.3c-2,0.2-3.6-0.8-3.8-2.8c-0.3-3.1-0.2-6.3,0-9.5
		c0.2-1.9,1.7-2.9,3.6-2.7c1.8,0.1,3.1,1.2,3.2,3.2C108.1,175.4,108,176.9,108,178.4z"/>
	<path class="st0" d="M156,339.6c0-1.3,0-2.7,0-4c0.1-1.9,1.2-3.1,3.1-3.3c2-0.2,3.6,0.8,3.8,2.8c0.3,3.1,0.2,6.3,0,9.5
		c-0.2,1.9-1.7,2.8-3.6,2.7c-1.9-0.1-3.1-1.2-3.2-3.2C155.9,342.6,156,341.1,156,339.6z"/>
	<path class="st0" d="M126.4,307.5c0,1.2,0.1,2.5,0,3.7c-0.1,2.3-1.5,3.7-3.5,3.7c-2.1,0-3.4-1.4-3.5-3.7c-0.1-2.6,0-5.2,0-7.7
		c0-2.2,1.2-3.5,3.3-3.5c2.2-0.1,3.4,1.2,3.6,3.3C126.5,304.7,126.4,306.1,126.4,307.5C126.4,307.5,126.4,307.5,126.4,307.5z"/>
	<path class="st0" d="M144.6,307.5c0,1.3,0,2.7,0,4c0,2-1.1,3.1-3,3.4c-1.9,0.3-3.6-0.6-3.7-2.5c-0.3-3.3-0.3-6.6,0-9.9
		c0.2-1.9,1.8-2.8,3.7-2.5c1.9,0.2,3,1.4,3,3.3C144.6,304.7,144.6,306.1,144.6,307.5z"/>
	<path class="st0" d="M108,210.7c0,1.3,0,2.7,0,4c-0.1,1.9-1.2,3.1-3.1,3.3c-2,0.2-3.6-0.9-3.8-2.8c-0.3-3-0.3-6.2,0-9.2
		c0.2-2,1.6-3.1,3.7-2.9c2,0.2,3.1,1.4,3.2,3.4C108,207.9,108,209.3,108,210.7z"/>
	<path class="st0" d="M119.4,242.7c0-1.3,0-2.7,0-4c0.1-2.1,1.3-3.3,3.3-3.4c2-0.1,3.5,1,3.7,3c0.2,3,0.2,6,0,9
		c-0.1,2-1.6,3.2-3.6,3.1c-1.9-0.1-3.2-1.3-3.3-3.4C119.4,245.5,119.4,244.1,119.4,242.7z"/>
	<path class="st0" d="M144.6,275.3c0,1.3,0,2.7,0,4c-0.1,2-1.1,3.1-3,3.3c-2.1,0.2-3.6-0.8-3.8-2.8c-0.3-3.1-0.2-6.3,0-9.4
		c0.2-1.8,1.7-2.9,3.6-2.7c2,0.2,3.2,1.3,3.2,3.4C144.6,272.4,144.6,273.8,144.6,275.3z"/>
	<path class="st0" d="M126.4,339.9c0,1.3,0.1,2.7,0,4c-0.2,2.1-1.4,3.3-3.6,3.4c-1.9,0-3.3-1.4-3.4-3.5c-0.1-2.7,0-5.3,0-8
		c0-2.1,1.1-3.3,3.2-3.5c2.2-0.2,3.5,1,3.8,3.1C126.5,336.9,126.4,338.4,126.4,339.9C126.4,339.9,126.4,339.9,126.4,339.9z"/>
	<path class="st0" d="M144.6,339.7c0,1.4,0,2.8,0,4.2c-0.1,2-1.2,3.1-3.1,3.3c-1.9,0.2-3.5-0.7-3.7-2.6c-0.3-3.2-0.3-6.5,0-9.7
		c0.2-2,1.9-2.9,3.9-2.6c1.9,0.3,2.9,1.5,2.9,3.4C144.6,337,144.6,338.4,144.6,339.7z"/>
	<path class="st0" d="M108,275.3c0,1.3,0,2.7,0,4c-0.1,2.1-1.2,3.2-3.3,3.3c-2.1,0.1-3.5-1-3.6-3c-0.2-3-0.2-6,0-9
		c0.2-2,1.6-3.1,3.6-3c2,0.1,3.2,1.3,3.2,3.4C108,272.4,108,273.9,108,275.3z"/>
	<path class="st0" d="M119.4,275.2c0-1.4,0-2.8,0-4.2c0.1-2,1.2-3.1,3.1-3.3c1.9-0.2,3.5,0.7,3.7,2.6c0.3,3.2,0.3,6.5,0,9.7
		c-0.1,1.8-1.7,2.8-3.6,2.7c-1.9-0.1-3-1.2-3.2-3.2C119.3,278,119.4,276.6,119.4,275.2C119.4,275.2,119.4,275.2,119.4,275.2z"/>
	<path class="st0" d="M156,275c0-1.3,0-2.7,0-4c0.1-2.1,1.3-3.2,3.3-3.4c2-0.1,3.5,1.1,3.6,3c0.2,3,0.2,6,0,9c-0.2,2-1.6,3.1-3.6,3
		c-2.1-0.1-3.2-1.3-3.3-3.4C155.9,277.8,156,276.4,156,275z"/>
	<path class="st0" d="M156,307.4c0-1.3,0-2.7,0-4c0.1-2.2,1.4-3.6,3.4-3.5c2.2,0,3.5,1.3,3.6,3.4c0.1,2.7,0.1,5.5,0,8.2
		c-0.1,2.1-1.3,3.4-3.5,3.4c-2,0-3.4-1.4-3.4-3.7C156,309.9,156,308.7,156,307.4z"/>
	<path class="st0" d="M108,307.5c0,1.3,0,2.7,0,4c0,2.1-1.2,3.3-3.2,3.4c-2,0.2-3.5-1-3.7-2.9c-0.2-3.1-0.2-6.2,0-9.2
		c0.2-2,1.7-3,3.8-2.8c1.9,0.2,3,1.3,3.1,3.3C108.1,304.6,108,306,108,307.5z"/>
	<path class="st0" d="M119.4,178.1c0-1.2,0-2.5,0-3.7c0.1-2.2,1.5-3.8,3.5-3.7c2.1,0.1,3.4,1.4,3.5,3.5c0.2,2.4,0.3,4.8-1.3,6.9
		c-0.5,0.7-0.7,1.7-1.2,2.4c-0.5,0.8-1.3,1.4-1.9,2.1c-0.8-1-2.1-1.9-2.4-3C119.1,181.2,119.4,179.6,119.4,178.1
		C119.4,178.1,119.4,178.1,119.4,178.1z"/>
	<path class="st0" d="M138.5,237.5c1.9,2,4.1,3.8,5.4,6.1c0.8,1.4,0.5,3.7-0.1,5.3c-0.3,0.8-2.4,1.3-3.6,1.2c-2.1-0.2-2.6-2.1-2.6-4
		c0-2.7,0-5.4,0-8.2C137.9,237.8,138.2,237.6,138.5,237.5z"/>
	<path class="st0" d="M180.6,281.2c-0.6,1.2-2.1,1.7-3.8,1.3c-1.8-0.4-2.5-1.8-2.5-3.6c0-1.5,0-3,0-4.4
		C176.3,276.7,178.4,278.9,180.6,281.2z"/>
	<path class="st0" d="M120.2,204.4c1.1,4.4,2.3,8.8,3.5,13.4c-1.7,0.5-3.4,0-3.8-1.7C118.9,212.3,119.4,208.3,120.2,204.4z"/>
</g>
</svg>
