<svg id="Layer_1" data-name="Layer 1" xmlns="http://www.w3.org/2000/svg" viewBox="0 0 1874.65 811.56"><title>logo</title><path d="M906.68,384.51c0-3.83-.63-7.81.17-11.46a32.15,32.15,0,0,0,.61-11.84c-1.22-8-.54-16.09-.83-24.13-.12-3.5,1.42-6.79,1-10.34-2-16.4-.52-32.87-1-49.31-.1-3.28-1.36-6.45-1-9.81,2.19-19.4.68-38.86,1-58.29s.16-38.66,0-58c0-3.53,1-6.82,1.2-10.26.15-2.2,1.35-2.9,3.67-3,1.16,0,2.33-.08,3.5,0,11,.75,21.85-1.17,32.81-1.12,2.84,0,5.69-.17,8.56-.08,4.44.14,8.88.46,13.36-.58a14.07,14.07,0,0,1,8.34.42c1.32.52,3,.28,4.44.36,3.11.16,6.24-.35,9.32.81a7.24,7.24,0,0,0,4.44,0c5.07-1.62,10.32-1.2,15.3-.61,4.63.54,9.21.64,13.82.78a71,71,0,0,0,16.09-1.83,20.38,20.38,0,0,1,8.93,0c3.16.83,6.22.72,9.34.78,4.5.08,9-.43,13.48.11,8.44,1,16.88.73,25.32,1,2.4.07,4.77,1,7.16,1.48a96.67,96.67,0,0,0,17,2.55,93.63,93.63,0,0,1,15.06,2c6.83,1.39,13.55,3.36,20.38,4.83,5,1.07,9.51,3.38,14.29,5,8.11,2.71,15.45,7.16,23.43,10.18,3.38,1.27,6.59,3,9.93,4.35,6.16,2.57,11.06,7.21,16.93,10.24,6.28,3.24,11.25,8.05,16.12,13a78.49,78.49,0,0,0,7.5,6.48,121.78,121.78,0,0,1,19,18.93,41.47,41.47,0,0,0,3.11,3.25,17.76,17.76,0,0,1,4.19,6.6,51.75,51.75,0,0,0,8.39,13.86c5,6.37,8.52,13.64,11.37,21.19a21.85,21.85,0,0,0,3,6.18c4.17,5.28,6,11.6,8,17.81,2.84,9.18,5.22,18.51,7.62,27.82,1.06,4.09,1.68,8.3,2.51,12.46,1,4.93,2,9.86,2.94,14.81a17.5,17.5,0,0,1,.07,3c0,4.34,0,8.67,0,13-.06,6.28,1.37,12.36,2.47,18.48a16.77,16.77,0,0,1,.53,3.37,90,90,0,0,0,1,16.8c.37,2.36,1.64,4.29,2.79,6.28a2.11,2.11,0,0,0,1.67.94c2.92.39,5.75,1.19,8.78,1.07,5.16-.2,10.34.13,15.5-.11a85.68,85.68,0,0,1,12,0,77.8,77.8,0,0,1,14.35,2.88,3,3,0,0,1,2.19,2.17,9.88,9.88,0,0,1,.75,3.84c0,5.5.62,11.1-.19,16.47-.83,5.54,0,11.21-1.67,16.63a6.08,6.08,0,0,0-.13,2.48c.68,5.33-.75,10.53-1.16,15.78a82.55,82.55,0,0,1-3,14.83c-1.94,7.23-3.2,14.6-4.89,21.89A33.65,33.65,0,0,1,1365,508a55.35,55.35,0,0,0-4.72,14.41,30.77,30.77,0,0,1-3,8.75c-5.16,9.77-9.38,20-14.42,29.79a66.75,66.75,0,0,1-10.73,16c-4,4.16-7.24,9-10.57,13.71a70.6,70.6,0,0,1-8.19,9.9c-2,1.94-4.24,3.72-5.51,6.37a5.37,5.37,0,0,1-2.09,2.11c-6.44,3.77-11.37,9.54-17.81,13.32a26.49,26.49,0,0,0-5.12,4.72,23.41,23.41,0,0,1-6.76,4.94c-8.56,4.11-16.43,9.58-25.59,12.52a38.54,38.54,0,0,0-8.32,4.33,32.6,32.6,0,0,1-9.89,4.09,44.56,44.56,0,0,0-11.44,4.26,19.16,19.16,0,0,1-11.31,2.7,17.63,17.63,0,0,0-11.35,2.65,18.18,18.18,0,0,1-7.94,2.3c-4.73.46-9.29,1.82-14,2.42a49.66,49.66,0,0,1-5.33.61c-3.83.07-7.82-.65-11.46.2-4.69,1.1-9.58-.14-14.09,1.78-6.6-.38-13.21.71-19.84-.66a33.88,33.88,0,0,0-12.93,0,36.28,36.28,0,0,1-6.85.66c-40.82,0-81.65-.05-122.47.11-4.19,0-8.15-1.25-12.31-1.19-2.21,0-4.14-2.84-4.28-5.86-.13-2.82-.15-5.67,0-8.49.3-6.15-1.4-12.15-1.27-18.3,0-1.82-.18-3.63,0-5.52a69.19,69.19,0,0,0,.2-10.48c-.49-9.31,2-18.53,1-27.79s-.89-18.54-.92-27.82c0-18.66-.23-37.33.16-56,.1-4.57,1.44-9.27.73-13.79-1.73-10.93-.52-21.87-.83-32.8-.15-4.93,1.74-9.82.9-14.77-1.44-8.41-.79-16.87-1-25.31-1.87-4.18-.22-8.85-1.87-13.14a4.6,4.6,0,0,0-2.77-3.09,27.49,27.49,0,0,0-7.58-1.85c-5.82-.63-11.58.22-17.37.11-6-.11-12,0-18,0-1.8,0-3.55.13-5.36-.7-1.43-.65-3.73-.22-4.5-1.57a14.54,14.54,0,0,1-1.49-6.08c-.22-3.65-.06-7.32-.06-11Zm140.7-24.37v34a13,13,0,0,0,0,3c.57,2.38,1,4.56,4.3,5.18a75.52,75.52,0,0,0,12.08,1.76c7.33.19,14.66.08,22,0a108.47,108.47,0,0,1,18.28,1.09c.73.12,1.16.38,1.28,1.19.65,4,1.85,8,2,12.06.66,27.43-.72,54.86.92,82.3.63,10.63.81,21.38-.73,32.07-.64,4.41-.09,9-.12,13.48a16.41,16.41,0,0,0,.91,5.82c1.44,4,1.29,4.16,5.46,4,6.94-.21,13.86.31,20.85-.75,4-.6,8.26-.47,12.2-1.43a114.66,114.66,0,0,0,27.53-10.17c4.5-2.43,9-4.9,13.48-7.28a8.89,8.89,0,0,0,3.85-3.07c1.79-3.1,4.59-5.24,6.91-7.83,3.76-4.18,7.7-8.24,10.89-12.89,1.49-2.16,2.52-4.63,4-6.83,6.31-9.79,9.64-20.83,13.13-31.75a182.07,182.07,0,0,0,4.94-21.35c.71-3.69,2.06-7.37,2-11,0-8.14,1.6-16.15,1.26-24.32-.13-3.17-1.26-6.11-1.23-9.25a2.31,2.31,0,0,0-1.9-2.08,17.4,17.4,0,0,0-5.24-1.13c-8.63.24-17.15-1.69-25.8-1.12-4.48.3-9-.15-13.49.14-2.44.15-4.44-1.13-6.77-1.29a3.38,3.38,0,0,1-2.73-3.14c-.55-4.69-1.28-9.36-2-14-.41-2.74-.87-5.48-1.32-8.21-.55-3.37-1.54-6.73-1.59-10.11-.13-7.76-.43-15.43-2-23.1a141.79,141.79,0,0,0-3.9-16.63c-3.68-11.15-9.17-21.45-14.52-31.81a35.94,35.94,0,0,0-5.68-8.05c-3.72-4-7.13-8.18-11.39-11.73-7.65-6.36-15.17-12.62-24.73-16-8.78-3.13-17.61-5.83-26.89-7-2.57-.34-5.16-.78-7.73-1.2-4.85-.8-9.69-1.78-14.61-1.64-3.09.08-6.1,1.21-9.29,1-1.43-.09-2.32,1.07-2.62,2.55-1,4.81-2.21,9.52-2.1,14.55.25,11,.09,22,.07,33a26.3,26.3,0,0,1-.75,5.81c-.59,2.65-1.93,5.33-1.11,8.24a53.18,53.18,0,0,1,1.9,15.07C1047.3,340.15,1047.38,350.15,1047.38,360.14Z"/><path d="M447.72,669.85c-9.49,0-19,.54-28.48-.16-7.94-.6-15.91-1.46-23.78-.63-14.45,1.51-28.9.23-43.33.86-3.38.15-6.5-1-9.78-1.11-1.64,0-2.25-1.42-2.64-2.63-1-2.94-2.24-5.91-2.46-8.94-.41-5.8-2.14-11.19-3.82-16.66a82.78,82.78,0,0,1-3.16-12.8c-.64-4.59-2.33-8.84-3.38-13.28-1.3-5.53-2.84-11-3.87-16.6-1.27-6.85-2.47-13.76-4.66-20.44-1.62-4.94-2.92-10-4.19-15-.95-3.76-3.27-5.44-7.06-5.61-3.27-.14-6.48-1.65-9.77-.9-7.73,1.79-15.61,1.27-23.31.71-6.61-.48-13.25-1.27-19.79-.65-19.26,1.8-38.55.08-57.79,1-5.42.27-10.84.85-16.29.8a81.39,81.39,0,0,0-8.56-.07,4.23,4.23,0,0,0-4,2.89A80,80,0,0,0,162,578.32c-.83,4.86-2.43,9.47-3.53,14.22-1.44,6.2-2.84,12.38-3.69,18.69a61.1,61.1,0,0,1-2.31,9.47,70.51,70.51,0,0,0-2.75,13.4,67.38,67.38,0,0,1-2.92,12.84c-1.71,5.62-2.61,11.43-4.68,17-1,2.54-2.49,4.15-4.66,4.57-2.71.51-5.36,1.43-8.22,1.41-17.49-.08-35,0-52.49-.06a25.75,25.75,0,0,1-5.69-.5,9.58,9.58,0,0,0-6.28.21c-1.28.56-2.63.3-4,.3-16,0-32,0-48,0-3.34,0-6.43-1.42-9.81-1.16-1.64.12-2.68-1.85-2.94-4-.55-4.59.87-8.74,2.6-12.86a124.72,124.72,0,0,0,6.47-22,60.66,60.66,0,0,1,3.47-11.68c3.42-7.67,5.39-15.73,7.52-23.78a210.26,210.26,0,0,1,6.56-22c2.21-5.76,3.59-11.84,5.39-17.77,2-6.71,3.91-13.48,6.26-20.08a85.06,85.06,0,0,0,2.49-8.43,99,99,0,0,1,4.18-13.54C47.74,506,49.31,499,51,492c1.31-5.43,3.43-10.53,5.17-15.79,3.16-9.59,5.76-19.35,8-29.2,1.9-8.46,4.19-16.82,8.29-24.48,1.91-3.57,1.64-7.2,2-10.88,0-.15-.12-.3-.16-.47-.45-1.87.92-4.42-1.09-5.57A13,13,0,0,0,66.62,404c-6.6.18-13.18-.64-19.83.68a24.9,24.9,0,0,1-11.81-.5c-2.75-.8-5.83-.67-8.75-1.19a11.23,11.23,0,0,1-4.1-1.54,4,4,0,0,1-2-3.74c.15-2.63-.29-5.39,1.12-7.76,3-5,4.17-10.6,5.46-16.17a126.38,126.38,0,0,1,6.37-20.06c3.39-8.14,5-16.83,7.06-25.35.78-3.16,2-6.18,2.93-9.28q7-22.64,13.7-45.35c1.06-3.58,1.6-7.31,2.48-11a75.45,75.45,0,0,1,5.26-14.23c1.91-4.08,2.61-8.41,3.55-12.68a40.75,40.75,0,0,1,3-9.26,34.82,34.82,0,0,0,3.7-11.08C75.35,210,77.43,205,79.27,200c3.66-10,6.3-20.26,9.24-30.42,2.32-8,4.88-15.88,7.55-23.75.42-1.24,1-2.41,1.45-3.65,1.27-3.66,4.3-5,7.68-5,4.77,0,9.54.08,14.35.54,7,.66,14.25,1.37,21.3-.52a4.65,4.65,0,0,1,1.49-.09c9.64.7,19.21-1.53,28.78-.85,6.36.45,12.79.36,19.13,1.62,2.83.57,6,.82,8.84-.41a9.43,9.43,0,0,1,3.94-.36q29,0,58,0a12.25,12.25,0,0,1,2.5,0c2.92.66,5.16,1.67,6.47,5,3.83,9.91,6.23,20.19,8.86,30.42a120.57,120.57,0,0,0,5,14.81c3.66,9.11,5.8,18.68,7.92,28.22a111,111,0,0,0,6.55,18.94,64.36,64.36,0,0,1,4.38,14.48c.89,5.21,2.63,10.1,4.11,15.1,2.45,8.28,4.59,16.65,7.07,24.91,1.59,5.31,3.62,10.48,5.31,15.76,1.65,5.11,3.27,10.24,4.59,15.44.8,3.18,2,6.21,2.91,9.33,2.48,8.77,5.41,17.39,8.16,26.07,2,6.2,2.69,12.74,5,18.84,1.81,4.73,3.9,9.34,5.36,14.21.93,3.13,1.19,6.39,2.32,9.49,1.61,4.39,2,5.1,6.64,4.82,3.6-.22,7,1,10.68.51a57.9,57.9,0,0,1,10.78-.38c8.1.37,16.16,1.33,24.29,1,2.12-.08,4.19.79,6.26,1.19,1.82.34,3,2.38,4,4.19a51.91,51.91,0,0,1,5.6,14.59c1.6,7.83,4,15.44,6.11,23.12s4.61,15.27,6.95,22.9c1.29,4.21,3.5,8,4.37,12.47,2.55,13.14,7.13,25.72,11.12,38.47,1.55,5,2.23,10.18,3.66,15.18,3.87,13.63,8.75,26.94,13.14,40.41,1.61,5,2.7,10.05,4.15,15,2.05,7,4.76,13.91,7,20.92,3.23,10.24,6.77,20.43,9.19,30.87a173.54,173.54,0,0,0,5.76,19.13,10.37,10.37,0,0,1,.69,2.83c.1,1.59-.41,2.12-2.09,2.63a33.36,33.36,0,0,1-10.09,1.79C466.39,669.8,457.06,669.85,447.72,669.85ZM241.31,448.12q13.74,0,27.48,0a58,58,0,0,0,11.29-.85c4-.79,5.37-1.27,6-6.8a22.42,22.42,0,0,0-.8-7.8c-1.84-7.58-3.76-15.12-6-22.6-.85-2.9-2.7-4.58-4.93-4.9-2.74-.4-5.38-1.43-8.24-1.35-5.66.16-11.32,0-17,.06a13.8,13.8,0,0,0-4.38.55,12.52,12.52,0,0,1-7.82,0,9.06,9.06,0,0,0-3.38-.53c-3.86.21-7.38-1.26-11-2.21a6.12,6.12,0,0,1-4.17-3.91,66.53,66.53,0,0,1-3.29-9.75c-1.56-6.48-3.5-12.9-4.65-19.46-.85-4.8-1.93-9.57-2.53-14.45-.48-3.94-.94-8-2.56-11.9a64.28,64.28,0,0,1-3.41-8.65c-1.4-5.36-2.29-10.81-3.63-16.17-1.74-6.93-2.85-14-4.2-21-1.08-5.6-1.92-11.25-3.22-16.79-2.65-11.23-6.49-22.12-9.82-33.17a6.84,6.84,0,0,0-.62-1.2,6.13,6.13,0,0,0-1.2.87c-3.71,4.32-4.4,9.79-5.34,15.07a98.78,98.78,0,0,1-3,13.79,44.06,44.06,0,0,0-2,8A124.57,124.57,0,0,1,166,297.77c-1.2,4.74-2.27,9.53-3.1,14.35a138.44,138.44,0,0,1-3.72,16.12c-3.1,10.34-4.75,21-6.36,31.61-.39,2.58-.68,5.21-1.26,7.73-2,8.71-4.31,17.36-6.56,26-.8,3.09,1,5.81,1,8.76,2.3.73,4.51,1.82,7,1.77.83,0,1.67,0,2.5,0q15,0,30,0a33.67,33.67,0,0,1,10.53,2c3.38,1.12,3.65,1.73,3.86,5.29A28.24,28.24,0,0,1,198.37,422a46,46,0,0,0-2.5,18.42c0,.49,0,1,0,1.5,0,4.06,0,4.5,3.72,4.87,3.43.33,6.72,1.41,10.23,1.36C220.32,448,230.81,448.12,241.31,448.12Z"/><path d="M1416.05,403.85c-4.51,0-9.51,0-14.51,0-3.64,0-7.09-1.12-10.59-2-1.57-.37-2.08-1.13-2.35-2.67a44.9,44.9,0,0,1-.1-17.89,24.84,24.84,0,0,0,.13-6c-.2-5.95.84-11.74,1.76-17.6.83-5.32,2.08-10.58,2.51-16a77.55,77.55,0,0,1,1.92-12,67.48,67.48,0,0,1,3.94-11.52c1.07-2.39.86-4.84,1.33-7.23a107.63,107.63,0,0,1,6.55-20.48c3.52-8.48,6.45-17.24,11-25.25,6-10.58,10.66-21.92,17.86-31.83,1.94-2.66,3.86-5.32,6-7.81,3.13-3.61,5.67-7.7,8.86-11.29,5.4-6.08,10.19-12.82,16.57-17.85,5.81-4.59,10.88-10.14,17.43-13.79a12.77,12.77,0,0,0,2.54-2.4,95.77,95.77,0,0,1,15.48-12.31,113.21,113.21,0,0,1,25.33-13.08,54.88,54.88,0,0,0,8.47-4.07,90.18,90.18,0,0,1,20.6-8c7.67-2.06,15-5.29,22.77-7.23a155.83,155.83,0,0,1,17.71-3.53,96.31,96.31,0,0,0,12-2.43c1.32-.35,2.6-.31,3.88-.53,6.5-1.1,13.16-.35,19.62-1.9a15,15,0,0,1,3.49-.08c6.33,0,12.68.27,19,0,11.48-.58,22.57,1.57,33.61,4.16,7.92,1.85,15.85,3.72,23.67,5.93,7.22,2.05,14.46,4.07,21.2,7.56,3.64,1.88,7.46,3.41,11.23,5,6.08,2.6,11.8,5.9,17.6,9a32,32,0,0,1,5.59,4.12c4.14,3.61,9.12,5.89,13.68,8.83a95.53,95.53,0,0,1,13.57,10.73c2.88,2.71,6,5.13,9.15,7.61,1.15.93,2.79,1.6,2.75,3.26-.06,2.26.82,4.64-.64,6.78-3.16,4.64-6.3,9.29-10.3,13.27-3.06,3-5.6,6.66-8.77,9.48a58.64,58.64,0,0,0-7.39,8.49c-2.53,3.27-4.92,6.69-8.14,9.37a31.26,31.26,0,0,1-2.7,2.17,19.34,19.34,0,0,0-4.87,4.93c-3.16,4.42-6.43,8.77-9.68,13.12a9.57,9.57,0,0,1-1.76,1.78c-4.77,3.64-8.43,8.4-12.57,12.66-1.54,1.58-3.42,2.6-5.07,4-2.21,1.84-2.94,2-5.17.36-1.61-1.15-2.84-2.84-4.45-4-12.81-9-26.13-17.15-41.39-21.39-6.73-1.87-13.46-3.78-20.47-4.63-5.69-.69-11.32-2.15-17.08-1.84-8.66.47-17.3,1.18-25.63,3.92-3.24,1.07-6.54,2-9.8,3a14.79,14.79,0,0,0-3.67,1.42,59.45,59.45,0,0,1-10.14,5,22.88,22.88,0,0,0-6.9,4.69,115.46,115.46,0,0,1-9.69,7.65c-5.92,4.39-10.71,9.89-15.59,15.33-6.72,7.47-10.94,16.36-14.91,25.44-2.24,5.12-4.91,10.05-7.32,15.1a48.89,48.89,0,0,0-5,15.86c-.59,5.29-2.43,10.43-3.4,15.69s-2,10.58-2.62,15.94c-.46,3.77-.65,7.52-.91,11.29-.24,3.38.59,6.57,1.17,9.79.75,4.13,2.33,5.41,6.51,6a24,24,0,0,0,3.5.05c12.5,0,25,.1,37.49-.08,2.57,0,4.83.92,7.28,1.16a3.4,3.4,0,0,1,3,2.91c.3,2.43,1.4,4.68,1.17,7.27-.5,5.63,1.55,11.16,1,16.82,1.87,4.35.76,9.09,1.81,13.62s2.64,8.75,3.32,13.29c.51,3.36,1.77,6.6,2.35,9.95,1.1,6.25,4.51,11.58,6.71,17.38,2.37,6.28,6.23,11.91,8.3,18.36a7.59,7.59,0,0,0,2.1,3.35c6.13,5.4,10.67,12.32,16.79,17.71,5.11,4.5,10,9.24,15,13.83,3.54,3.25,8.3,4.68,12.6,6.74,3.55,1.71,7.24,3.15,10.72,5,3.84,2,8,2.87,12.15,3.69,6.7,1.32,13.54,2,20.15,3.82a6.66,6.66,0,0,0,2.48.17c4.55-.51,9.1-1.08,13.65-1.63a12.89,12.89,0,0,1,2.93-.32c5.18.62,10.25-.54,15.28-1.18s10.21-2,14.72-5.08,9.66-4.91,14.28-7.8c7.29-4.57,14.51-9.17,20.71-15.25a41.08,41.08,0,0,1,10.68-7.07c3.33-1.66,6.46-.85,8.66,2.29,3.25,4.63,7.45,8.43,11,12.79a40.3,40.3,0,0,0,6.28,5.64,34.13,34.13,0,0,1,9.63,11.2,32.12,32.12,0,0,0,6.48,8.69c6,5.81,11.79,11.77,17.71,17.64a59.84,59.84,0,0,0,4.86,4.25c2.84,2.24,4.86,5.33,6.88,8.34a14.37,14.37,0,0,0,1.28,2.12c3.13,3.28,3.13,7.48,2.26,11.24a17.43,17.43,0,0,1-6.38,9.81c-3.78,2.91-7.83,5.39-10.52,9.62-2.17,3.42-5.75,5.52-9.58,6.73-4.77,1.52-8.12,5-11.82,8a19.86,19.86,0,0,0-2.88,2.77c-3.38,4.11-8,6.21-12.82,7.94a42.56,42.56,0,0,0-9.69,4.82,43.06,43.06,0,0,1-11,5.32,24.78,24.78,0,0,0-4,1.92A35.81,35.81,0,0,1,1783,666a34.46,34.46,0,0,0-9.78,3.12c-7.07,3.33-14.73,4.09-22.19,5.73-4.29.93-8.56,2-12.9,2.59-3.57.45-7,1.63-10.71,1.46-4.49-.2-9,0-13.49,0-3.65-.05-7.12,1.45-10.83,1a89.88,89.88,0,0,0-16-.08c-5.28.35-10.41-1.1-15.61-1.7-6.18-.71-12.2-2.2-18.24-3.41-6.53-1.32-13.1-2.74-19.64-3.59-13.54-1.75-25.65-7.4-38.1-12.22A103.23,103.23,0,0,1,1576.8,649c-3.3-2.14-7.2-3-10.94-4.15a22.14,22.14,0,0,1-9.22-5.39c-3.83-3.66-8.32-6.52-12.36-10-2.54-2.16-4.92-4.45-7.27-6.78a47,47,0,0,0-8.48-6.86,76.94,76.94,0,0,1-15.19-12.7c-1.44-1.48-2.15-3.3-3.12-5-4.17-7.38-10.27-13.31-15.22-20.1-4.65-2.47-5.88-7.36-8.09-11.52-3.4-6.38-6.88-12.7-9.73-19.38-3.29-7.72-7.12-15.23-10.77-22.8a50.8,50.8,0,0,1-3.64-12.16,31,31,0,0,0-1.2-4.74c-2.75-7.2-4.15-14.74-5.92-22.19-1.64-6.94-3.22-13.91-4.82-20.86a3.05,3.05,0,0,1-.17-1c.62-4.67-.69-9.22-1.2-13.76-.81-7.12-.35-14.23-1-21.29-.49-5.87-1.57-11.7-1.91-17.61-.23-3.92-2.32-5.17-6.76-6C1432.08,403.33,1424.3,404.18,1416.05,403.85Z"/><path d="M766.11,323.26c15.6,0,31.2,0,46.8,0,2.72,0,5.52-.55,8.15.84,1.42.76,2.84-.09,4.29-.28,5.67-.76,11.37-1.4,17,.49,1.61.53,3.49.18,5.19.52,4.29.86,5.59,2.85,6,7.18.43,4.6-1.39,8.37-3.77,11.89a347.83,347.83,0,0,0-22.36,38.85c-5.56,11.07-12.3,21.52-19.18,31.88-4.79,7.22-8.32,15.33-11.92,23.27-2.06,4.54-3.91,9.08-6.79,13.17A137,137,0,0,0,779.13,469c-5.47,11.86-12.66,22.72-20,33.46a67.08,67.08,0,0,0-4.46,7.72A127,127,0,0,1,745,526.9c-7,9.8-11.17,21.13-16.76,31.71a184.26,184.26,0,0,1-9.77,16.73,146.16,146.16,0,0,0-12,20.6c-4.45,9.73-10.31,18.66-16,27.68-6.91,11-12.22,22.8-18.05,34.34-2.69,5.33-5.28,10.67-9,15.38-4.37,5.5-7.62,11.67-10.65,18-4.43,9.21-9.28,18.11-15.81,26.08a46.28,46.28,0,0,0-7.31,13,97.91,97.91,0,0,1-13,24.12c-3.45,4.6-5.68,9.92-8.05,15.13a297,297,0,0,1-19.08,34.55c-.26.42-.29,1-.55,1.38-1.39,2.18-3.61,3.31-5.68,4.65a2,2,0,0,1-2.93-1,21.12,21.12,0,0,1-1.25-6.7c-.3-11.74,1.45-23.18,4.11-34.56a58.25,58.25,0,0,0,1.9-12.39c.1-7.75,2.14-15.15,3.51-22.65,1.16-6.34,2.85-12.57,2.61-19.07-.2-5.52,1.58-10.74,2.25-16.12.64-5.13,2-10.09,2.46-15.31.62-7.56,2.32-15,3.58-22.53.74-4.37,2.1-8.72,2.18-13.09.14-8.26,2.53-16.1,3.61-24.17.71-5.35,2.66-10.52,2.54-16a43,43,0,0,1,1.87-11.68c1.46-5.62-.19-11.55,2.47-16.85-.32-8.5,2.73-16.53,3.52-24.94s1.61-17.11,3.66-25.57a91.25,91.25,0,0,0,2.18-13.11c.72-8.1,2.4-16.09,3.23-24.22.65-6.28,2.83-12.45,4.75-18.54,1.12-3.54,1.49-6.81,0-10.27a6.6,6.6,0,0,1-.5-2.74c.08-5.16-3.17-7.23-7.37-9.14-3.75-1.7-8-.57-11.51-2.74-10,.31-20-1.13-30,.83a50.84,50.84,0,0,1-18.69,0,50.25,50.25,0,0,0-8.85-1q-29.05-.06-58.12,0c-.75,0-1.51,0-2.26,0-7.65-.14-10.17-2.09-11.07-9.25-.37-3-.38-5.89-1.44-8.79-.55-1.51,0-3.45.18-5.18.08-.7.95-1.35.92-2-.38-7.79,1.8-15.23,3.36-22.7,1.17-5.56.59-11.36,2.72-16.75a8,8,0,0,0,.18-3c-.25-13,2.22-25.61,4.17-38.35.88-5.79,1.68-11.76,2.06-17.72.44-7.07,2.31-14.05,3.45-21.09.95-5.84,2.72-11.57,2.41-17.59-.47-8.77,1.68-17.21,3.49-25.67,1.25-5.81,2.88-11.52,2.56-17.57-.59-11,1.12-21.63,3.95-32.3a67.08,67.08,0,0,0,2.22-14.63c.19-5.61,1.93-11.16,2.33-16.78.69-9.65,4.25-18.68,5.38-28.29.76-6.48.06-13.09,1.43-19.3,1.56-7.1,0-14.47,2.61-21.37.42-1.11.14-2.49.18-3.75A172.71,172.71,0,0,1,527.34,73a105.66,105.66,0,0,0,2.08-13.94,139,139,0,0,1,2.51-16,37.61,37.61,0,0,0,.38-7.48c0-8.49,1.87-16.57,4.06-24.75,1.52-5.68,5.25-7.94,9.72-8.86,6.43-1.31,12.83-2.6,19.81-.65A25.85,25.85,0,0,0,582.14.66a6,6,0,0,1,2.21-.45c11.58,0,23.21-.61,34.73.28,5.48.42,10.71,1.44,16.15-.16,1.86-.54,4-.14,6-.14q31.71,0,63.41,0a39.79,39.79,0,0,1,10.36,1,21.94,21.94,0,0,0,11.2.17C731,0,735.62.24,740.33.22c16.86-.08,33.72.09,50.57-.1C797.67,0,804.18,2.73,811,1.64c5.4-.86,10.78-1.91,16.3-1.46a23.43,23.43,0,0,1,4.46.35c4,1.11,4.9,2.71,5.22,7,.58,7.52-2.2,14.46-5.41,20.61C824,42.68,819.29,58.32,813.09,73.39c-3,7.33-6,14.69-9.51,21.8-6.46,13.14-12,26.69-17.62,40.18a52.87,52.87,0,0,1-2.86,5.8,86.55,86.55,0,0,0-7.29,15.67c-2.31,7-4.86,14-7.41,20.91a43,43,0,0,1-3.57,7.24,168.79,168.79,0,0,0-8.89,18c-4.68,10.64-8.43,21.69-14,32a60.56,60.56,0,0,0-3.25,8.28c-4.58,12.59-10.47,24.59-16.2,36.68-3.6,7.61-6.57,15.52-10.08,23.17-1.37,3-.77,5.91-.81,8.85,0,3.48-1.48,7.85.65,10.23,2.5,2.8,7.12,1,10.79,1C737.43,323.35,751.77,323.26,766.11,323.26Z"/></svg>