<svg id="Layer_1" data-name="Layer 1" xmlns="http://www.w3.org/2000/svg" viewBox="0 0 390.06 200.32"><defs><style>.cls-1{fill:none;}.cls-2{fill:#191919;}</style></defs><title>logo</title><path class="cls-1" d="M226.49,131c14.41,0,26.06-6.53,26.27-32.55H225.44V131Z"/><path class="cls-1" d="M41.78,107.68H62.24L60.42,99.8c-.11-.45-.21-.92-.32-1.38H43.92c-.11.46-.21.93-.31,1.38Z"/><path class="cls-2" d="M60.42,99.8l1.82,7.88H41.78l1.83-7.88c.1-.45.2-.92.31-1.38H17.1L0,155.14H30.82L36.4,131H67.62l5.58,24.17h31.87L88,98.42H60.1C60.21,98.88,60.31,99.35,60.42,99.8Z"/><path class="cls-2" d="M226.49,131h-1.05V98.42H195.32v56.72h34.5c30.64,0,53.49-17,53.76-56.72H252.76C252.55,124.44,240.9,131,226.49,131Z"/><path class="cls-2" d="M297.94,99.1c0,38.88,25.57,58.14,53.94,58.14,15.41,0,28.72-5.6,38.18-16.81L373.6,122.22c-4.91,5.25-11.21,9.1-18.57,9.1-15.32,0-26.14-11.77-26.26-32.9H298C298,98.65,297.94,98.87,297.94,99.1Z"/><path class="cls-2" d="M28.51,41.31,11.29,98.42H38.11c2.38-10.62,5.21-23.62,7.56-34.69h.7c2.35,11.07,5.5,24.07,7.92,34.69H82.16L64.94,41.31Z"/><path class="cls-2" d="M222.26,41.31H189.51V98.42h30.12V65.48h1.05c14.54,0,26.27,5.6,26.27,32.22v.72h30.82V97.7C277.77,57.42,254.83,41.31,222.26,41.31Z"/><path class="cls-2" d="M347.82,65.13c7.7,0,13.31,2.8,18.56,7.35l16.46-18.56c-8-7.7-20.31-14.71-35-14.71-30.64,0-55.39,21.46-55.68,59.21H323c0-.13,0-.24,0-.37C323,77.39,333.81,65.13,347.82,65.13Z"/><polygon class="cls-2" points="121.39 0 176.79 0 151.61 77.88 179.89 77.88 127.97 200.32 138.44 107.72 110.54 107.72 121.39 0"/></svg>